<svg fill="#494949" xmlns="http://www.w3.org/2000/svg" xmlns:xlink="http://www.w3.org/1999/xlink" version="1.1" x="0px" y="0px" viewBox="0 0 100 100" style="enable-background:new 0 0 100 100;" xml:space="preserve"><style type="text/css">
	.st0{opacity:0.65;fill:none;stroke:#494949;stroke-width:2.8346;stroke-miterlimit:10;}
	.st1{opacity:0.8;fill:none;stroke:#494949;stroke-width:2.8346;stroke-miterlimit:10;}
	.st2{fill:none;stroke:#494949;stroke-width:2.8346;stroke-miterlimit:10;}
	.st3{fill:none;stroke:#494949;stroke-width:2.8346;stroke-miterlimit:10;}
	.st4{fill:#494949;}
	.st5{fill:none;stroke:#494949;stroke-width:2.8346;stroke-miterlimit:10;}
	.st6{fill:none;stroke:#494949;stroke-width:2.8346;stroke-miterlimit:6;}
</style><path d="M90,26.9c-3.2-3.2-6.6-4.6-10.2-4.1c-5.7,0.8-10.1,6.1-12,8.8c-2.4-2.1-7.9-5.7-17.8-5.2c-9.9-0.5-15.4,3.1-17.8,5.2  c-1.9-2.7-6.3-8.1-12-8.8c-3.6-0.5-7,0.9-10.2,4.1c-0.3,0.3-6.9,7.3-4.6,14.3c1.6,4.7,6.9,8,15.7,9.8c-0.9,3-2.1,9.8,1.7,15.7  c4.3,6.7,13.4,10.2,27.2,10.6c13.7-0.4,22.8-3.9,27.1-10.6c3.9-6,2.6-12.7,1.7-15.7c8.9-1.8,14.2-5.1,15.7-9.8  C96.9,34.3,90.3,27.2,90,26.9z M91.9,40.3c-1.3,3.9-6.5,6.7-15.2,8.2l-1.1,1.9c0,0.1,3.3,8.2-0.9,14.8C71,71,62.7,74.1,50,74.5  c-12.7-0.3-21-3.5-24.8-9.3c-4.3-6.6-1-14.7-0.9-14.8l-1.1-2C14.6,47,9.4,44.2,8.1,40.3C6.3,35,12,28.9,12,28.9  c2.2-2.2,4.5-3.4,6.9-3.4c0.3,0,0.6,0,1,0.1c6.2,0.8,10.9,8.9,10.9,9l2.4,0.1c0-0.1,4.8-6.1,16.8-5.4h0.2  c11.9-0.7,16.6,5.2,16.8,5.4l2.4-0.1c0-0.1,4.8-8.2,10.9-9c2.7-0.4,5.3,0.8,7.8,3.3C88,28.9,93.7,35,91.9,40.3z M39.9,55  c0,1.7-0.7,3-1.5,3s-1.5-1.3-1.5-3s0.7-3,1.5-3S39.9,53.4,39.9,55z M63.1,55c0,1.7-0.7,3-1.5,3s-1.5-1.3-1.5-3s0.7-3,1.5-3  S63.1,53.4,63.1,55z M54.7,62.6c0,2.9-1.9,4.2-4.8,4.2s-4.7-1.3-4.7-4.2c0-2.9,1.8-10.3,4.7-10.3S54.7,59.7,54.7,62.6z M81.7,34.5  c0.2,0.2,3.6,3.8,2.4,7.5c-0.9,2.7-3.8,4.4-8.8,5.3l-0.5-2.8c3.8-0.6,6.1-1.8,6.6-3.4c0.6-1.7-1.1-4-1.7-4.6c-1-1-2-1.5-3.1-1.3  c-2.5,0.3-4.6,3.8-4.6,3.9l-2.5-1.4c0.1-0.2,2.8-4.8,6.7-5.3C78.2,32.1,80,32.8,81.7,34.5z M30.4,37.7L28,39.1  c-0.6-1-2.5-3.6-4.6-3.9c-1-0.1-2,0.3-3.1,1.3c-0.6,0.7-2.3,2.9-1.7,4.6c0.5,1.6,2.8,2.7,6.6,3.4l-0.5,2.8c-5-0.8-7.9-2.6-8.8-5.3  c-1.2-3.7,2.2-7.3,2.3-7.5c1.7-1.7,3.6-2.4,5.5-2.2C27.7,32.9,30.3,37.5,30.4,37.7z"></path></svg>